<mxfile host="app.diagrams.net" modified="2022-08-23T14:49:35.682Z" agent="5.0 (Windows NT 10.0; Win64; x64) AppleWebKit/537.36 (KHTML, like Gecko) Chrome/104.0.0.0 Safari/537.36" etag="SPoSAZTjkedX01nJszMJ" version="20.2.5" type="github">
  <diagram id="rT_EG_EDEBZOGKwm7Ltq" name="第 1 页">
    <mxGraphModel dx="1408" dy="740" grid="1" gridSize="10" guides="1" tooltips="1" connect="1" arrows="1" fold="1" page="1" pageScale="1" pageWidth="827" pageHeight="1169" math="0" shadow="0">
      <root>
        <mxCell id="0" />
        <mxCell id="1" parent="0" />
        <mxCell id="GHCXkCsLJSs6Cbv-dssi-10" style="edgeStyle=orthogonalEdgeStyle;curved=1;rounded=0;sketch=1;hachureGap=4;orthogonalLoop=1;jettySize=auto;html=1;entryX=0;entryY=0.5;entryDx=0;entryDy=0;fontFamily=Comic Sans MS;fontSize=18;endArrow=open;startSize=14;endSize=14;sourcePerimeterSpacing=8;targetPerimeterSpacing=8;" edge="1" parent="1" source="GHCXkCsLJSs6Cbv-dssi-1" target="GHCXkCsLJSs6Cbv-dssi-9">
          <mxGeometry relative="1" as="geometry" />
        </mxCell>
        <mxCell id="GHCXkCsLJSs6Cbv-dssi-1" value="Sql Server" style="ellipse;whiteSpace=wrap;html=1;aspect=fixed;rounded=1;fontStyle=1;fontFamily=Comic Sans MS;sketch=1;fillColor=#f8cecc;strokeColor=#b85450;fontSize=18;" vertex="1" parent="1">
          <mxGeometry x="290" y="230" width="130" height="130" as="geometry" />
        </mxCell>
        <mxCell id="GHCXkCsLJSs6Cbv-dssi-9" value="索引&lt;br&gt;(聚集索引/非聚集索引)" style="rounded=1;whiteSpace=wrap;html=1;sketch=1;fontStyle=1;fontFamily=Comic Sans MS;hachureGap=4;fontSize=18;fillColor=#fff2cc;strokeColor=#d6b656;" vertex="1" parent="1">
          <mxGeometry x="570" y="180" width="230" height="60" as="geometry" />
        </mxCell>
      </root>
    </mxGraphModel>
  </diagram>
</mxfile>
